<svg viewBox="0 0 597.21 597.21" xmlns="http://www.w3.org/2000/svg"><path d="m427 170.23a180.5 180.5 0 0 1 50.57 98.13h29.13a209.15 209.15 0 0 0 -52.58-111.36l18.93-32.82-32.83 18.92a209.18 209.18 0 0 0 -113.48-52.85l-22-87.89a3.11 3.11 0 0 0 -6.12.75v114a181 181 0 0 1 128.38 53.12z"/><path d="m119.55 328.85h-29.13a208.39 208.39 0 0 0 52.67 111.37l-18.93 32.83 32.84-18.93a208.34 208.34 0 0 0 113.51 53l22 87.77a3.11 3.11 0 0 0 6.13-.75v-113.98a181.66 181.66 0 0 1 -179.09-151.31z"/><path d="m117.05 298.61a181.4 181.4 0 0 1 151.31-178.95v-29.13a209.22 209.22 0 0 0 -111.36 52.56l-14.24-8.21-18.58-10.72 10.71 18.59 8.2 14.25a208.4 208.4 0 0 0 -53 113.52l-87.77 22a3.11 3.11 0 0 0 .75 6.13h113.98z"/><path d="m594.1 298.61h-114a181.48 181.48 0 0 1 -151.25 179.05v29.13a208.42 208.42 0 0 0 111.38-52.67l32.82 18.93-18.93-32.83a209.18 209.18 0 0 0 52.88-113.48l87.89-22a3.11 3.11 0 0 0 -.79-6.13z"/><path d="m343.69 309.07 43.75-23.53-12.38-20.2h-19.06l.95-9.81 21.91 3.34 13.34 10h10.52l16.68 9.52 16.6 39.05 17.89-15.32c0-1.17 0-2.34 0-3.51a155.45 155.45 0 0 0 -182.43-153l-.75 3.71-20.48 3.33-59.06 49.53 7.62 28.58-44.29 50 28.58 48.1 58.92 21.45 6.91 64.29 29.05 33.34 44.77-37.15 34.76-95.25zm-48.64-52.07-53.05-19.72 2.62-16-2.62-17.66 17.24-2.93 54.91 30.55zm39.12 47.63-16.05-37 18.88 20.29z"/><g fill="#26a59a"><path d="m186.13 227.76-6-22.6-1.42-5.31a154.68 154.68 0 0 0 -33.5 74.15l.73-.82z"/><path d="m431.58 336.42-6.16-14.42-15.08-35.48-10.67-6.09h-1.88l5.84 9.53-10.73 5.77-23.63 12.7 2.6 1.22-3.61 9.89-34.77 95.25-1.06 2.92-2.4 2-41 34c3.16.19 6.34.3 9.55.3a155.37 155.37 0 0 0 154.1-135.64l-9.19 7.88z"/><path d="m186.18 191.4 26.48-22.21a156.5 156.5 0 0 0 -26.48 22.21z"/><path d="m254.85 229.78 36.1 13.38 6.09-8.23-39.91-22.21-2.13.37.96 6.46.27 1.78-.29 1.77z"/><path d="m237.79 419.43-.38-3.6-6.14-57.16-52.08-19-3.86-1.4-2.09-3.53-28.58-48.1-.82-1.39q-.57 6.59-.58 13.34a155.39 155.39 0 0 0 121.36 151.6l-24.44-28z"/><path d="m528.17 389-19.17-7.91a4.32 4.32 0 0 0 -3.3 8l19.17 7.91a4.38 4.38 0 0 0 1.65.33 4.32 4.32 0 0 0 1.65-8.31z"/><path d="m507.38 216.45a4.38 4.38 0 0 0 1.65-.33l19.14-7.93a4.32 4.32 0 1 0 -3.3-8l-19.14 7.93a4.32 4.32 0 0 0 1.65 8.31z"/><path d="m383.43 93.82a4.39 4.39 0 0 0 1.66.33 4.33 4.33 0 0 0 4-2.67l7.91-19.14a4.32 4.32 0 0 0 -8-3.3l-7.93 19.13a4.33 4.33 0 0 0 2.36 5.65z"/><path d="m208.14 91.48a4.32 4.32 0 0 0 4 2.67 4.33 4.33 0 0 0 4-6l-7.95-19.15a4.32 4.32 0 0 0 -8 3.3z"/><path d="m91.48 208.14-19.14-7.93a4.32 4.32 0 1 0 -3.3 8l19.14 7.93a4.38 4.38 0 0 0 1.65.33 4.32 4.32 0 0 0 1.65-8.31z"/><path d="m88.18 381.09-19.18 7.91a4.32 4.32 0 0 0 1.65 8.31 4.38 4.38 0 0 0 1.65-.33l19.14-7.92a4.32 4.32 0 0 0 -3.3-8z"/><path d="m213.78 503.39a4.34 4.34 0 0 0 -5.64 2.34l-7.93 19.14a4.32 4.32 0 0 0 8 3.31l7.91-19.18a4.33 4.33 0 0 0 -2.34-5.61z"/><path d="m389.08 505.73a4.32 4.32 0 0 0 -8 3.31l7.92 19.14a4.32 4.32 0 0 0 4 2.66 4.41 4.41 0 0 0 1.66-.32 4.33 4.33 0 0 0 2.34-5.65z"/></g></svg>