<svg xmlns="http://www.w3.org/2000/svg" viewBox="0 0 597.21 597.21"><defs><style>.cls-1{fill:#26a59a;}</style></defs><title>Icon</title><g id="Layer_2" data-name="Layer 2"><g id="Icon"><g id="Icon-2" data-name="Icon"><g id="Black"><path d="M427,170.23a180.5,180.5,0,0,1,50.57,98.13h29.13A209.15,209.15,0,0,0,454.12,157l18.93-32.82-32.83,18.92A209.18,209.18,0,0,0,326.74,90.25l-22-87.89a3.11,3.11,0,0,0-6.12.75v114h0A181,181,0,0,1,427,170.23Z"/><path d="M119.55,328.85H90.42a208.39,208.39,0,0,0,52.67,111.37l-18.93,32.83L157,454.12a208.34,208.34,0,0,0,113.51,53l22,87.77a3.11,3.11,0,0,0,6.13-.75V480.16A181.66,181.66,0,0,1,119.55,328.85Z"/><path d="M117.05,298.61h0A181.4,181.4,0,0,1,268.36,119.66V90.53A209.22,209.22,0,0,0,157,143.09l-14.24-8.21-18.58-10.72,10.71,18.59L143.09,157a208.4,208.4,0,0,0-53,113.52l-87.77,22a3.11,3.11,0,0,0,.75,6.13H117.05Z"/><path d="M594.1,298.61h-114A181.48,181.48,0,0,1,328.85,477.66v29.13a208.42,208.42,0,0,0,111.38-52.67l32.82,18.93-18.93-32.83A209.18,209.18,0,0,0,507,326.74l87.89-22A3.11,3.11,0,0,0,594.1,298.61Z"/><path d="M343.69,309.07l43.75-23.53-12.38-20.2H356l.95-9.81,21.91,3.34,13.34,10h10.52l16.68,9.52L436,317.44l17.89-15.32c0-1.17,0-2.34,0-3.51a155.45,155.45,0,0,0-182.43-153l-.75,3.71-20.48,3.33-59.06,49.53,7.62,28.58-44.29,50,28.58,48.1L242,350.31l6.91,64.29,29.05,33.34,44.77-37.15,34.76-95.25ZM295.05,257,242,237.28l2.62-16L242,203.62l17.24-2.93,54.91,30.55Zm39.12,47.63-16.05-37L337,287.92Z"/></g><g id="Teal"><path class="cls-1" d="M186.13,227.76l-6-22.6-1.42-5.31A154.68,154.68,0,0,0,145.21,274l.73-.82Z"/><path class="cls-1" d="M431.58,336.42,425.42,322l-15.08-35.48-10.67-6.09h-1.88l5.84,9.53-10.73,5.77-23.63,12.7,2.6,1.22-3.61,9.89-34.77,95.25-1.06,2.92-2.4,2-41,34c3.16.19,6.34.3,9.55.3a155.37,155.37,0,0,0,154.1-135.64l-9.19,7.88Z"/><path class="cls-1" d="M186.18,191.4l26.48-22.21A156.5,156.5,0,0,0,186.18,191.4Z"/><polygon class="cls-1" points="254.85 229.78 290.95 243.16 297.04 234.93 257.13 212.72 255 213.09 255.96 219.55 256.23 221.33 255.94 223.1 254.85 229.78"/><path class="cls-1" d="M237.79,419.43l-.38-3.6-6.14-57.16-52.08-19-3.86-1.4-2.09-3.53-28.58-48.1-.82-1.39q-.57,6.59-.58,13.34a155.39,155.39,0,0,0,121.36,151.6l-24.44-28Z"/><path class="cls-1" d="M528.17,389,509,381.09a4.32,4.32,0,0,0-3.3,8L524.87,397a4.38,4.38,0,0,0,1.65.33,4.32,4.32,0,0,0,1.65-8.31Z"/><path class="cls-1" d="M507.38,216.45a4.38,4.38,0,0,0,1.65-.33l19.14-7.93a4.32,4.32,0,1,0-3.3-8l-19.14,7.93a4.32,4.32,0,0,0,1.65,8.31Z"/><path class="cls-1" d="M383.43,93.82a4.39,4.39,0,0,0,1.66.33,4.33,4.33,0,0,0,4-2.67L397,72.34a4.32,4.32,0,0,0-8-3.3l-7.93,19.13A4.33,4.33,0,0,0,383.43,93.82Z"/><path class="cls-1" d="M208.14,91.48a4.32,4.32,0,0,0,4,2.67,4.33,4.33,0,0,0,4-6L208.19,69a4.32,4.32,0,0,0-8,3.3Z"/><path class="cls-1" d="M91.48,208.14l-19.14-7.93a4.32,4.32,0,1,0-3.3,8l19.14,7.93a4.38,4.38,0,0,0,1.65.33,4.32,4.32,0,0,0,1.65-8.31Z"/><path class="cls-1" d="M88.18,381.09,69,389a4.32,4.32,0,0,0,1.65,8.31,4.38,4.38,0,0,0,1.65-.33l19.14-7.92a4.32,4.32,0,0,0-3.3-8Z"/><path class="cls-1" d="M213.78,503.39a4.34,4.34,0,0,0-5.64,2.34l-7.93,19.14a4.32,4.32,0,0,0,8,3.31L216.12,509A4.33,4.33,0,0,0,213.78,503.39Z"/><path class="cls-1" d="M389.08,505.73a4.32,4.32,0,0,0-8,3.31L389,528.18a4.32,4.32,0,0,0,4,2.66,4.41,4.41,0,0,0,1.66-.32,4.33,4.33,0,0,0,2.34-5.65Z"/></g></g></g></g></svg>