<svg enable-background="new 0 0 299.34 299.34" viewBox="0 0 299.34 299.34" xmlns="http://www.w3.org/2000/svg"><path d="m282.868 56.803h-78.598l6.877-6.158c.505-.452.957-.958 1.35-1.509 10.05-14.091 6.762-33.731-7.331-43.781-6.72-4.792-15.185-6.475-23.225-4.612-8.041 1.861-14.906 7.09-18.837 14.345l-13.434 24.799-13.434-24.799c-3.931-7.256-10.797-12.486-18.837-14.346-8.042-1.862-16.507-.18-23.225 4.612-14.091 10.05-17.38 29.69-7.331 43.781.394.552.847 1.058 1.35 1.509l6.877 6.158h-78.596c-5.07 0-9.18 4.11-9.18 9.18v58.204c0 5.07 4.11 9.18 9.18 9.18h2.432v156.794c0 5.07 4.11 9.18 9.18 9.18h243.17c5.07 0 9.18-4.11 9.18-9.18v-156.794h2.432c5.07 0 9.18-4.11 9.18-9.18v-58.203c0-5.07-4.111-9.18-9.18-9.18zm-103.62-32.97c1.446-2.671 3.873-4.519 6.833-5.204.802-.186 1.605-.277 2.401-.277 2.142 0 4.221.664 6.024 1.95 2.834 2.021 4.71 5.023 5.285 8.457.525 3.14-.096 6.293-1.751 8.977l-21.295 19.067h-15.357zm-79.699 4.927c.574-3.432 2.451-6.436 5.286-8.457 2.473-1.764 5.463-2.359 8.425-1.673 2.959.684 5.386 2.533 6.833 5.204l17.86 32.969h-15.357l-21.296-19.067c-1.655-2.683-2.276-5.838-1.751-8.976zm15.959 252.221h-78.243v-147.614h78.243zm49.964 0h-31.604v-147.614h31.604zm96.604 0h-78.243v-147.614h78.243zm11.612-165.974h-248.035v-39.844h248.034v39.844z"/></svg>