<svg width="242" height="34" viewBox="0 0 242 34" xmlns="http://www.w3.org/2000/svg"><title>Group 2</title><g fill="#234254" fill-rule="evenodd"><path d="M14.953.03c.678.06 1.74.393 2.54 1.095.85.826 1.045 2.08.747 3.22-.265 1.015-.562 1.543-1.598 2.245-1.046.707-2.312.647-2.312.647v4.4l2.14 1.732-2.14 1.727v5.993s2.144-1.229 3.473-3.981c0 0 .054-.15.18-.434.118.737.05 2.23-.784 4.147-.628 1.443-1.77 2.832-3.203 3.623-2.54 1.409-4.444 1.543-6.485 1.12-2.39-.492-4.562-1.837-6.044-4.181C.426 19.735-.04 17.815.002 15.748c.084-4.056 3.1-7.555 6.581-8.86.424-.159.593-.263 1.194-.318-.277.19-.597.433-.99.692-1.122.737-2.082 2.205-2.492 3.335l6.757-3.017v9.453l-5.45 2.732c.622.861 2.508 2.166 4.122 2.35 2.745.303 4.356-.896 4.356-.896v-6.123l-2.128-1.727 2.129-1.727V7.237c-1.16-.134-2.57-.518-3.394-.722-1.212-.299-5.253-1.433-5.888-1.528-.634-.094-1.418-.065-1.891.359-.474.428-.768 1.179-.566 1.856.114.383.378.607.577.826 0 0-.233-.02-.656-.274C1.5 7.297.92 6.401.85 5.296c-.09-1.448.506-2.753 1.7-3.629C3.587 1 4.76.572 6.125.767c1.99.283 4.665 1.408 7.048 1.98.924.225 1.638.3 2.287-.08.303-.218.834-.781.4-1.527-.508-.876-1.48-.857-2.304-1.01.71-.15.865-.15 1.397-.1M6.92 18.824V9.696L4.175 10.92s-.7 1.568-.577 3.842c.097 1.778 1.09 3.903 1.852 4.794l1.469-.732M41.162 9.253s-2.07 1.254-3.463 2.085c-1.392.826-3.26 1.737-3.26 1.737v8.71l-1.245 1.002.165.193 1.215-.98 3.808 3.445L45 20.199l-.157-.19-3.657 2.872-3.006-2.817v-1.05l6.038-4.446-3.056-5.315zm.087 7.192l-3.07 2.25V11.21l3.07 5.236zM23.815 28.72c.87.214 2.402.333 4.25-.593 2.046-1.025 3.075-3.2 3.062-5.43l.086-3.16v-6.905l1.309-1-.153-.194-1.287.97-2.971-3.304-3.812 3.274V1.25l-4.763 3.683c.212.135.887.26.907 1.21v15.59l-2.016 1.498.138.209.973-.727 2.712 2.523 4.27-3.4-.155-.193-1.004.796-1.062-1.055.01-8.686 1.244-1.06 1.855 2.304s-.003 5.625.002 7.492c-.014 1.99-.02 4.474-1.066 5.673-1.045 1.206-1.464 1.3-2.529 1.614zm29.63-.787c-1.705-.194-2.422-1.23-2.402-2.046.012-.522.487-1.548 1.524-1.687 1.036-.144 2.096.343 2.99 1.393l3.94-4.354-.19-.17-1.058 1.185c-1.075-1.224-2.6-1.996-4.12-2.22V6.764l10.233 18.65s.098.214.519.214c.362 0 .275-.294.275-.294l-.002-18.77c.831-.034 2.1-.492 2.717-1.124 1.97-2.026 1.166-4.236.95-4.45-.121.966-.863 1.937-2.102 1.942-1.625.004-2.616-1.195-2.616-1.195l-3.936 4.49.187.169 1.128-1.29c1.378 1.27 2.383 1.389 3.423 1.459v10.89L57.314 3.658c-.686-1.14-1.733-2.14-3.374-2.155-1.885-.01-3.235 1.653-3.396 3.086-.182 1.617.02 1.991.02 1.991s.277-1.802 1.391-1.787c1.001.015 1.522.936 1.923 1.628v3.996c-1.032.07-3.719.19-3.883 2.987-.012 1.04.634 2.13 1.2 2.498.727.478 1.293.468 1.293.468s-.87-.462-.61-1.378c.234-.822 1.94-.956 2.002-.613v5.64c-.821-.01-3.45.08-4.637 2.335-.714 1.363-.673 2.887.092 3.961.622.876 1.904 1.996 4.11 1.618zm30.863-2.424l-3.245-2.698-1.425 1.036-.145-.204 1.45-1.06v-7.541c.07-3.106-2.843-2.335-2.686-5.63.07-1.448 1.471-2.543 2.178-2.907.757-.383 1.577-.383 1.577-.383s-1.329.831-1.006 2.026c.497 1.841 3.644 2.005 3.703 4.46v8.556l2.324 1.862.61-.478v-9.264L86.39 12.04l3.226-2.857 2.947 2.613-1.124 1.22v8.208l2.76 2.28.49-.315v-9.88l-1.255-1.174 3.232-2.957 3.022 2.499 1.207-1.07.162.189-2.716 2.389v8.053l-6.951 4.29-3.556-2.817-3.526 2.798zm111.13-12.613l.161.19 1.246-1.076 1.85 2.096v7.197l-.898.821 2.883 3.26 2.958-2.916-1.216-1.26v-8.705l.736-.588 2.045 2.39v7.177l-.768.767 2.714 3.056 2.903-2.907-1.067-1.12-.027-8.74.784-.637 2.133 2.349v7.138l-.702.701 2.998 3.27 4.024-3.717-.171-.184-.977.9-1.499-1.662v-8.148l1.447-1.1-.15-.2-1.45 1.1-2.737-3.07-3.915 3.096L206 9.387l-3.782 2.962-2.767-2.947-4.015 3.494zm-8.194-.224l.163.19 1.053-.912 1.647 1.952v8.227l-1.162 1.016.162.19 1.22-1.041 2.656 3.066 3.839-3.429-.162-.19-1.13.996-1.588-1.832V12.86l1.34-1.16-.163-.189-1.271 1.095-2.796-3.26-3.808 3.325zm1.107-6.814l2.89-2.648 2.35 2.608-2.903 2.638-2.337-2.598zm-44.008 6.117l2.517-2.573s.347.304.67.463c.185.09.947.483 1.646.1.379-.21.433-.264.848-.657.085 2-.875 3.41-2.073 3.991-.49.24-1.922.697-3.42-1.13v9.248l1.594 1.41 1.33-1.101.153.194-4.166 3.48-3.169-2.887-1.14 1.075-.187-.2 1.737-1.567.014-7.984-1.332-1.767-1.145 1.01-.166-.184 4.035-3.628 2.254 2.707zm10.614 3.853l4.654-6.774s.614.726 1.683 1.01c1.454.378 2.723-1.025 2.723-1.025-.243 1.811-1.161 3.867-3.056 4.18-1.67.28-3.223-1.02-3.223-1.02l-.302.468 6.462 9.766 1.292-1.135.167.189-4.434 3.878-5.966-9.537zm-3.845-9.044c0-1.463-.599-2.364-1.382-2.3l5.077-3.568v20.198h.001l1.34 1.414 1.016-.882.16.19-4.092 3.574-2.77-2.604-1.11.976-.176-.19 1.936-1.686V6.784zM75.058 9.253s-2.072 1.254-3.464 2.085c-1.392.826-3.259 1.737-3.259 1.737v8.71l-1.245 1.002.165.193L68.47 22l3.807 3.445 6.618-5.246-.157-.19-3.656 2.872-3.007-2.817v-1.05l6.039-4.446-3.056-5.315zm.087 7.192l-3.07 2.25V11.21l3.07 5.236zM226.506 9.253s-2.071 1.254-3.462 2.085c-1.394.826-3.26 1.737-3.26 1.737v8.71l-1.246 1.002.166.193 1.215-.98 3.808 3.445 6.617-5.246-.156-.19-3.658 2.872-3.007-2.817v-1.05l6.04-4.446-3.057-5.315zm.088 7.192l-3.07 2.25V11.21l3.07 5.236z"/><path d="M184.464.03c.678.06 1.74.393 2.54 1.095.851.826 1.044 2.08.747 3.22-.266 1.015-.562 1.543-1.599 2.245-1.045.707-2.311.647-2.311.647v4.4l2.14 1.732-2.14 1.727v5.993s2.143-1.229 3.473-3.981c0 0 .055-.15.179-.434.118.737.052 2.23-.783 4.147-.628 1.443-1.771 2.832-3.204 3.623-2.539 1.409-4.443 1.543-6.484 1.12-2.39-.492-4.561-1.837-6.043-4.181-1.042-1.648-1.509-3.568-1.465-5.635.083-4.056 3.099-7.555 6.58-8.86.424-.159.592-.263 1.195-.318-.278.19-.599.433-.991.692-1.121.737-2.082 2.205-2.492 3.335l6.756-3.017v9.453l-5.448 2.732c.621.861 2.507 2.166 4.122 2.35 2.744.303 4.355-.896 4.355-.896v-6.123l-2.127-1.727 2.127-1.727V7.237c-1.16-.134-2.57-.518-3.393-.722-1.213-.299-5.254-1.433-5.888-1.528-.634-.094-1.418-.065-1.891.359-.475.428-.768 1.179-.566 1.856.114.383.377.607.577.826 0 0-.234-.02-.656-.274-.764-.457-1.344-1.353-1.413-2.458-.09-1.448.506-2.753 1.7-3.629 1.037-.667 2.21-1.095 3.575-.9 1.99.283 4.665 1.408 7.048 1.98.924.225 1.638.3 2.287-.08.302-.218.834-.781.4-1.527-.508-.876-1.48-.857-2.304-1.01.71-.15.865-.15 1.397-.1m-8.034 18.794V9.696l-2.743 1.224s-.7 1.568-.578 3.842c.096 1.778 1.09 3.903 1.852 4.794l1.47-.732M233.87 26.57c-.439.128-2.345-.334-2.802-2.31-.445-1.927.891-3.23 2.91-5.281l-2.383-2.18v-4.162s1.751-.876 3.124-1.732c1.373-.86 2.777-1.792 2.777-1.792s1.024 1.294 2.181 1.19c1.812-.16 1.728-1.588 1.676-1.926.309.552 1.137 2.195-2.048 5.868l2.594 2.095v5.406s-3.013 1.568-5.862 3.648c0 0-1.59-1.99-2.97-1.04-.933.642-.506 1.727.803 2.216m-2.241-4.167s1.369-2.264 3.72-1.777c2.255.468 3.038 2.852 3.038 2.852v-5.49l-1.573-1.369c-1.728 1.738-4.804 4.25-5.185 5.784m3.49-11.468v4.325l1.439 1.255s3.125-2.504 4.26-4.823c0 0-1.404 1.906-3.296 1.324-1.583-.483-2.403-2.081-2.403-2.081M136.55 12.846l1.169-1.075.168.19-1.138 1.054v8.597s-2.16 1.145-3.668 1.996c-1.506.85-3.116 1.851-3.116 1.851l-3.963-3.34-1.048.912-.17-.19 1.102-.96v-9.244h.015s1.87-.846 3.446-1.737c1.41-.796 2.989-1.717 2.989-1.717l4.215 3.663zm-6.904 7.576l3.35 3.031v-9.278l-3.35-3.1v9.347zM108.67 6.45c-.001-1.363-.555-2.125-1.451-2.145-1.29-.03-1.597 1.792-1.597 1.792s-.235-1.403.94-2.678c.66-.711 1.891-1.712 3.817-1.249 1.988.483 2.553 2.026 2.553 3.39v18.789a15.982 15.982 0 0 0 2.431.488V2.18h.248v3.056l4.077-3.285 2.987 2.658 1.393-1.204.158.189-1.456 1.254v17.47c-.072 1.14-.255 2.3-1.331 2.967-2.4 1.424-5.294-.219-7.872-.592-1.914-.284-4.918-.647-5.672 1.11-.246.577-.23 1.468.639 2.05 1.742 1.166 9.5-1.956 12.16-.716 2.426 1.129 2.417 2.916 2.042 4.146-.63 2.304-3.538 2.708-3.538 2.708s1.422-.827 1.017-2.196c-.206-.691-.675-.886-2.198-.717-3.325.379-7.3 1.991-9.97.872-1.376-.573-2.35-2.295-2.255-3.987.068-2.434 2.877-3.395 2.877-3.395v-9.004c-.08-.359-1.58-.264-1.908.398-.498 1.001.62 1.459.62 1.459s-.927.14-1.703-.757c-.378-.438-1.168-1.971-.141-3.39.844-1.17 1.856-1.373 3.132-1.513v-5.31zm6.94 18.457s1.184.313 2.046-.394c.959-.791.857-1.9.857-1.9v-7s-.555-.716-1.438-.716c-.883 0-1.464.742-1.464.742v9.268zm2.903-18.372l-1.958-1.722-.944.746v6.486s.581.736 1.464.736 1.438-.706 1.438-.706v-5.54zm0 5.928s-.56.637-1.442.637c-.883 0-1.46-.642-1.46-.642v2.768s.577-.643 1.46-.643c.882 0 1.442.607 1.442.607v-2.727z"/></g></svg>
