<?xml version="1.0" encoding="iso-8859-1"?>
<!-- Generator: Adobe Illustrator 19.0.0, SVG Export Plug-In . SVG Version: 6.00 Build 0)  -->
<svg version="1.1" id="Capa_1" xmlns="http://www.w3.org/2000/svg" xmlns:xlink="http://www.w3.org/1999/xlink" x="0px" y="0px"
	 viewBox="0 0 512 512" style="enable-background:new 0 0 512 512;" xml:space="preserve">
<path style="fill:#1BD9DE;" d="M492.7,46.8L256,263.699L171.099,341.4L125.5,383.399c-3.001,2.701-6.601,3.9-10.201,3.9
	c-1.5,0-2.999,0-4.501-0.599L98.8,383.099c-4.501-1.199-8.101-4.799-9.6-9c-1.8-4.499-1.199-9.3,1.199-13.5L121,312.9l135-212.1
	L301,30L492.7,46.8z"/>
<polygon style="fill:#15B7BE;" points="492.7,46.8 256,263.699 256,100.8 301,30 "/>
<path style="fill:#1DE8F1;" d="M422.8,374.099c-1.5,4.2-5.099,7.8-9.6,9l-11.999,3.602C399.7,387.3,398.2,387.3,396.7,387.3
	c-3.6,0-7.2-1.199-10.201-3.9l-45.598-42L256,263.699L18.3,46.8L211,30l45,70.8l135,212.1l30.601,47.699
	C423.999,364.799,424.6,369.6,422.8,374.099z"/>
<path style="fill:#1BD9DE;" d="M422.8,374.099c-1.5,4.2-5.099,7.8-9.6,9l-11.999,3.602C399.7,387.3,398.2,387.3,396.7,387.3
	c-3.6,0-7.2-1.199-10.201-3.9l-45.598-42L256,263.699V100.8l135,212.1l30.601,47.699C423.999,364.799,424.6,369.6,422.8,374.099z"/>
<path style="fill:#5BFBFE;" d="M211,30c0,16.5-47.1,30-105,30c-36,0-68.8-5.101-87.7-13.2H18C6.899,41.999,0.3,36.599,0,30.3V30
	C0,13.5,48.1,0,106,0c45,0,83.401,8.099,98.401,19.799C208.599,22.8,211,26.4,211,30z"/>
<path style="fill:#1BD9DE;" d="M301,30c0,16.5,47.1,30,105,30c36,0,67.8-5.101,86.7-13.2h0.3c11.1-4.801,18.699-10.201,18.999-16.5
	V30c0-16.5-48.1-30-106-30c-45,0-83.401,8.099-98.401,19.799C303.401,22.8,301,26.4,301,30z"/>
<path style="fill:#3C3A41;" d="M467.199,420.3L436,436.5l-30,15.6c-24.3,0-47.401-12.001-61.5-32.1L310,370.8
	c-4.499-6.599-2.999-16.199,3.9-20.7l98.101-69c3.3-2.401,7.5-3.3,11.4-2.401c3.9,0.601,7.2,2.701,9.6,6l2.999,4.2l31.5,45
	C485.501,360,485.501,394.499,467.199,420.3z"/>
<path style="fill:#B35C4B;" d="M436,390c-24.901,0-45,20.099-45,45v62c0,8.399,6.599,15,15,15h60c8.401,0,15-6.601,15-15v-62
	C481,410.099,460.901,390,436,390z"/>
<path style="fill:#A24F3D;" d="M481,435v62c0,8.399-6.599,15-15,15h-30V390C460.901,390,481,410.099,481,435z"/>
<path style="fill:#57555C;" d="M512,497c0,8.399-6.599,15-15,15H376c-8.401,0-15-6.601-15-15c0-8.401,6.599-15,15-15h121
	C505.401,482,512,488.599,512,497z"/>
<path style="fill:#3C3A41;" d="M512,497c0,8.399-6.599,15-15,15h-61v-30h61C505.401,482,512,488.599,512,497z"/>
<path style="fill:#57555C;" d="M202,370.8L167.5,420c-14.099,20.099-37.2,32.1-61.5,32.1l-30-15.6l-31.199-16.2
	C26.5,394.499,26.5,360,44.501,333.9l31.5-45L79,284.7c2.401-3.3,5.7-5.4,9.6-6c3.9-0.899,8.101,0,11.4,2.401l98.101,69
	C205,354.6,206.499,364.2,202,370.8z"/>
<path style="fill:#B35C4B;" d="M76,390c-24.901,0-45,20.099-45,45v62c0,8.399,6.599,15,15,15h60c8.401,0,15-6.601,15-15v-62
	C121,410.099,100.901,390,76,390z"/>
<path style="fill:#A24F3D;" d="M121,435v62c0,8.399-6.599,15-15,15H76V390C100.901,390,121,410.099,121,435z"/>
<path style="fill:#57555C;" d="M151,497c0,8.399-6.599,15-15,15H16c-8.401,0-16-6.601-16-15c0-8.401,7.599-15,16-15h120
	C144.401,482,151,488.599,151,497z"/>
<path style="fill:#3C3A41;" d="M151,497c0,8.399-6.599,15-15,15H76v-30h60C144.401,482,151,488.599,151,497z"/>
<g>
</g>
<g>
</g>
<g>
</g>
<g>
</g>
<g>
</g>
<g>
</g>
<g>
</g>
<g>
</g>
<g>
</g>
<g>
</g>
<g>
</g>
<g>
</g>
<g>
</g>
<g>
</g>
<g>
</g>
</svg>
