<svg viewBox="0 0 100 100" xmlns="http://www.w3.org/2000/svg"><path d="m89 10h-43a1 1 0 0 0 -1 1v20a1 1 0 0 0 1 1h43a1 1 0 0 0 1-1v-20a1 1 0 0 0 -1-1zm-1 20h-41v-18h41z"/><path d="m50 29h9a1 1 0 0 0 1-1v-14a1 1 0 0 0 -1-1h-9a1 1 0 0 0 -1 1v14a1 1 0 0 0 1 1zm1-14h7v12h-7z"/><path d="m65 20h7a1 1 0 0 0 1-1v-5a1 1 0 0 0 -1-1h-7a1 1 0 0 0 -1 1v5a1 1 0 0 0 1 1zm1-5h5v3h-5z"/><path d="m77 20h7a1 1 0 0 0 1-1v-5a1 1 0 0 0 -1-1h-7a1 1 0 0 0 -1 1v5a1 1 0 0 0 1 1zm1-5h5v3h-5z"/><path d="m65 29h7a1 1 0 0 0 1-1v-5a1 1 0 0 0 -1-1h-7a1 1 0 0 0 -1 1v5a1 1 0 0 0 1 1zm1-5h5v3h-5z"/><path d="m77 29h7a1 1 0 0 0 1-1v-5a1 1 0 0 0 -1-1h-7a1 1 0 0 0 -1 1v5a1 1 0 0 0 1 1zm1-5h5v3h-5z"/><path d="m56 17h-3a1 1 0 0 0 0 2h3a1 1 0 0 0 0-2z"/><path d="m56 20h-3a1 1 0 0 0 0 2h3a1 1 0 0 0 0-2z"/><path d="m57 65h-18a4 4 0 0 0 0 8h8v11.35l-8.41 3.74a1 1 0 0 0 .81 1.83l8.6-3.83 8.59 3.82a1 1 0 0 0 .81-1.83l-8.4-3.73v-11.35h8a4 4 0 0 0 0-8zm0 6h-18a2 2 0 0 1 0-4h18a2 2 0 0 1 0 4z"/><path d="m44.46 41.79a1 1 0 0 0 -1.46-1.41l-3.42 3.42a1 1 0 1 0 1.42 1.41z"/><path d="m46.79 40.5-5.87 5.88a1 1 0 1 0 1.41 1.41l5.88-5.87a1 1 0 0 0 -1.41-1.41z"/><path d="m76 65h4a1 1 0 0 0 0-2h-4a1 1 0 0 0 0 2z"/><path d="m80 73h-4a1 1 0 0 0 0 2h4a1 1 0 0 0 0-2z"/><path d="m80 83h-4a1 1 0 0 0 0 2h4a1 1 0 0 0 0-2z"/><path d="m90 36a1 1 0 0 0 -1-1h-21a1 1 0 0 0 -1 1v18h-6.07a2.44 2.44 0 0 0 .07-.5 2.5 2.5 0 0 0 -2-2.5s0 0 0 0v-13a1 1 0 0 0 -1-1h-20a1 1 0 0 0 -1 1v13s0 0 0 0a2.47 2.47 0 0 0 -2 3h-14.42a5.11 5.11 0 0 0 -4.05-3.43l-4.46-13.52 14.82-18.05.31.63a1 1 0 0 0 .1.15 6.93 6.93 0 0 0 -.85 7.39l2 4.09a1 1 0 0 0 1.34.45l10.76-5.31a1 1 0 0 0 .45-1.4l-2-4.09a6.92 6.92 0 0 0 -6.4-3.86.94.94 0 0 0 0-.14l-1.77-3.59a1 1 0 0 0 -1.34-.45l-.9.44-.44-.9a1 1 0 0 0 -1.79.88l.44.9-.9.44a1 1 0 0 0 -.47 1.37l.57 1.14a1 1 0 0 0 -.44.29l-16.33 19.94a1 1 0 0 0 .77 1.63 1 1 0 0 0 .54-.19l3.91 11.87a5 5 0 0 0 -3.53 3.32 1 1 0 0 0 -.92 1v34a1 1 0 0 0 2 0v-29h54v29a1 1 0 0 0 1 1h22a1 1 0 0 0 1-1v-29a1 1 0 0 0 -.15-.5 1 1 0 0 0 .15-.5v-4a1 1 0 0 0 -.15-.5 1 1 0 0 0 .15-.5zm-55.62-16.67a4.91 4.91 0 0 1 2.84 2.49l1.58 3.18-9 4.42-1.58-3.2a5.07 5.07 0 0 1 2.36-6.67 4.91 4.91 0 0 1 3.77-.25zm-3.78-1.9a7 7 0 0 0 -.87.35 7.16 7.16 0 0 0 -.91.55l-1.15-2.33 1.79-.88zm37.4 52.57h20v8h-20zm20-16h-5v-17h5zm-12-17h5v17h-5zm-7 0h5v17h-5zm-30 2h18v12h-18zm-1.68 15a.5.5 0 0 1 .18-1h21a.5.5 0 0 1 .22 1h-.06-21.29zm-21.57-1.5a3.09 3.09 0 0 1 2.64 1.5h-5.29a3.07 3.07 0 0 1 2.65-1.5zm-3.75 5.5v-2h76v2zm76 2v8h-20v-8zm-20 28v-8h20v8z"/><path d="m72 50h-1a1 1 0 0 0 0 2h1a1 1 0 0 0 0-2z"/><path d="m79 50h-1a1 1 0 0 0 0 2h1a1 1 0 0 0 0-2z"/><path d="m85 52h1a1 1 0 0 0 0-2h-1a1 1 0 0 0 0 2z"/><path d="m30.38 72h-13.62a1 1 0 0 0 -1 1.18l3 16a1 1 0 0 0 1 .82h7.62a1 1 0 0 0 1-.82l3-16a1 1 0 0 0 -1-1.18zm-3.84 16h-6l-2.54-14h11.17z"/></svg>