<svg enable-background="new 0 0 100 100" viewBox="0 0 100 100" xmlns="http://www.w3.org/2000/svg"><path d="m75.689 60.901c2.28-.656 3.955-2.757 3.955-5.246 0-3.013-2.45-5.463-5.462-5.463-3.013 0-5.463 2.45-5.463 5.463 0 2.488 1.674 4.589 3.954 5.246-2.732.678-4.766 3.143-4.766 6.081v8.455h1.479.82v11.964h2.959v-11.964h2.029v11.964h2.959v-11.964h.82 1.479v-8.455c.002-2.938-2.032-5.403-4.763-6.081zm-1.507-2.742c-1.382 0-2.504-1.123-2.504-2.503 0-1.381 1.122-2.503 2.504-2.503 1.38 0 2.503 1.122 2.503 2.503 0 1.38-1.123 2.503-2.503 2.503z"/><path d="m97.373 70.767v-4.663c0-2.431-1.65-4.463-3.882-5.092 2.313-.63 4.021-2.743 4.021-5.254 0-3.004-2.445-5.448-5.449-5.448s-5.45 2.444-5.45 5.448c0 .852.202 1.655.552 2.374-.17-.091-.378-.156-.65-.164-1.325-.041-2.033 2.019-2.374 2.568.953.551 3.666.612 3.666-1.276 0-.025-.002-.066-.007-.117.713.896 1.7 1.56 2.834 1.869-2.232.629-3.883 2.661-3.883 5.092l.003 4.628-2.332 9.019h3.676v7.65h2.959v-7.65h2.012v7.65h2.959v-7.65h3.675zm-7.788-14.878c.688-.283 1.597-.763 2.369-1.51.678.564 1.566 1.034 2.577 1.162.006.073.022.144.022.218 0 1.373-1.117 2.491-2.49 2.491-1.329 0-2.409-1.049-2.478-2.361zm-1.339 20.904 1.405-5.425.058-5.263c0-1.297 1.055-2.353 2.352-2.353s2.353 1.056 2.353 2.353l.003 4.807 1.461 5.881z"/><path d="m7.772 60.901c2.28-.656 3.955-2.757 3.955-5.246 0-3.013-2.45-5.463-5.462-5.463s-5.462 2.45-5.462 5.463c0 2.488 1.674 4.589 3.954 5.246-2.732.678-4.766 3.143-4.766 6.081v8.46h2.301v11.959h2.958v-11.959h-2.3v-8.46c0-1.827 1.487-3.313 3.314-3.313s3.315 1.486 3.315 3.313v8.46h-2.3v11.959h2.959v-11.963h2.3v-8.456c-.002-2.938-2.034-5.403-4.766-6.081zm-4.011-5.246c0-1.381 1.123-2.503 2.503-2.503s2.503 1.122 2.503 2.503c0 1.38-1.123 2.503-2.503 2.503-1.38.001-2.503-1.122-2.503-2.503z"/><path d="m30.097 66.105c0-2.431-1.65-4.463-3.882-5.092 2.313-.63 4.021-2.743 4.021-5.254 0-3.004-2.444-5.448-5.449-5.448s-5.449 2.444-5.449 5.448c0 .852.202 1.655.552 2.374-.17-.091-.378-.156-.65-.164-1.325-.041-2.033 2.019-2.374 2.568.953.551 3.666.612 3.666-1.276 0-.025-.002-.066-.007-.117.712.896 1.7 1.56 2.834 1.869-2.231.629-3.882 2.661-3.882 5.092l.003 4.628-2.332 9.019h3.676v7.65h2.959v-7.65h2.012v7.65h2.959v-7.65h3.674l-2.328-8.984v-4.663zm-5.311-7.855c-1.329 0-2.408-1.049-2.477-2.361.688-.283 1.597-.763 2.369-1.51.679.564 1.566 1.034 2.577 1.162.006.073.022.144.022.218-.001 1.373-1.118 2.491-2.491 2.491z"/><path d="m60.426 51.969v-10.128c0-5.953-4.844-10.795-10.798-10.795-5.951 0-10.795 4.843-10.795 10.795v10.128h2.83l-3.894 20.453h7.488v14.98h2.959v-14.98h2.959v14.98h2.959v-14.98h7.352l-3.892-20.453zm-10.797-17.965c.502 0 .991.052 1.467.143-.073.748-.698 1.337-1.466 1.337-.767 0-1.392-.589-1.464-1.337.474-.091.962-.143 1.463-.143zm7.838 17.892h-15.674v-10.055c0-2.761 1.439-5.188 3.602-6.584.545 1.834 2.226 3.185 4.235 3.185s3.691-1.35 4.236-3.184c2.163 1.396 3.602 3.823 3.602 6.583v10.055z"/><path d="m64.292 22.855c-.961-1.356-2.569-3.625-4.939-3.625-.221 0-.445.02-.671.063-.123.024-.22.069-.334.1-1.01-3.938-4.58-6.861-8.828-6.861-5.031 0-9.123 4.092-9.123 9.122 0 5.031 4.093 9.123 9.123 9.123 3.387 0 6.342-1.859 7.916-4.607.733.464 1.653.727 2.738.727 1.585 0 3.329-.552 4.338-1.375l1.183-.962-.997-1.152c-.107-.126-.243-.322-.406-.553zm-12.79-7.031c1.121.382 2.098 1.076 2.825 1.982-1.317-.139-2.578-.522-3.38-.874.219-.417.4-.784.555-1.108zm-8.147 5.83c0-2.989 2.14-5.486 4.968-6.045-1.266 2.404-3.131 5.012-4.964 6.132 0-.029-.004-.057-.004-.087zm6.165 6.164c-2.306 0-4.318-1.275-5.375-3.155 2.138-1.007 3.951-3.131 5.298-5.178 1.547.765 3.812 1.327 5.895 1.327.095 0 .186-.009.28-.011.039.28.066.563.066.853 0 3.4-2.765 6.164-6.164 6.164zm10.654-3.88c-1.403 0-1.51-.658-1.553-.932-.093-.67.369-.759.618-.807.037-.007.076-.011.113-.011.604 0 1.384.86 1.961 1.608-.352.086-.74.142-1.139.142z"/></svg>