<svg enable-background="new 0 0 94.517 100" viewBox="0 0 94.517 100" xmlns="http://www.w3.org/2000/svg"><path d="m46.834 29.254c7.994 0 14.448-6.569 14.448-14.64 0-8.082-6.454-14.614-14.448-14.614s-14.456 6.532-14.456 14.614c0 8.071 6.462 14.64 14.456 14.64z"/><path d="m60.891 32.813c6.61.236 9.392 5.591 9.392 5.591l21.341 29.608c.883 1.313 1.398 2.92 1.398 4.654 0 4.604-3.688 8.342-8.243 8.342-1.09 0-2.081-.244-3.022-.604l-12.883-3.638v12.997h-44.724v-12.996l-12.884 3.636c-.908.362-1.931.606-3.03.606-4.556 0-8.236-3.738-8.236-8.342 0-1.735.509-3.343 1.431-4.656l21.327-29.607s2.799-5.355 9.386-5.59h28.747zm-14.374 47.875 16.688-5.606-.365-.074c-11.525-3.416-7.046-18.806 4.453-15.372l1.583.557v-17.37l-22.358 7.38-22.368-7.381v17.367l1.575-.556c11.518-3.435 16.005 11.955 4.48 15.371l-.375.077z"/><path d="m92.458 100c1.143 0 2.06-.925 2.06-2.079 0-1.161-.917-2.08-2.06-2.08h-90.258c-1.118 0-2.058.919-2.058 2.08 0 1.153.94 2.079 2.058 2.079z"/></svg>