<svg xmlns="http://www.w3.org/2000/svg" xmlns:xlink="http://www.w3.org/1999/xlink" version="1.1" x="0px" y="0px" viewBox="0 0 100 125" enable-background="new 0 0 100 100" xml:space="preserve"><path d="M28.639,69.701v5.266l0.97,3.632h-3.164l-2.17-3.632l-2.779-13.132l9.058,3.093L28.639,69.701z M66.523,78.599h3.164v-3.632  l1.306-8.321h-9.254L66.523,78.599z M64.325,64.181 M95,57.506l-0.001,0l0,0l-2.434,1.521c-5.761,3.601-12.419,5.51-19.213,5.51  H60.894l-3.863,10.431v3.632h-3.164l-1.234-3.632l-1.143-12.4c-0.105-1.137,0.302-2.262,1.109-3.069l1.971-1.997h-2.957  l-0.844,0.844c-1.022,1.022-1.557,2.433-1.47,3.876l0.14,2.316h-8.977c-2.996,0-5.971-0.494-8.805-1.463L19.641,58.97l-4.306,10.731  l0.01,5.266l0.905,3.632h-3.164l-2.478-3.632L5.204,42.965c-0.587-3.574,0.119-7.206,1.934-10.274C5.827,31.496,5,29.779,5,27.869  c0-3.294,2.45-6.029,5.625-6.469v2.138c-2.004,0.422-3.516,2.204-3.516,4.331c0,1.2,0.481,2.288,1.26,3.086l0.971-1.153  c2.874-2.954,6.77-4.315,10.908-4.567C43.847,23.8,78.012,35.686,78.012,35.686l5.984-2.872l5.377-5.377v6.738  c0,3.132-2.539,5.672-5.672,5.672h-0.25l5.907,10.566l3.53,1.469c0.001-0.601,0.504-1.085,1.112-1.053  C94.572,50.858,95,51.37,95,51.941V57.506z M82.337,47.107l-3.841,0.562l1.921,1.405h1.921V47.107z"/><text x="0" y="115" fill="#000000" font-size="5px" font-weight="bold" font-family="'Helvetica Neue', Helvetica, Arial-Unicode, Arial, Sans-serif">Created by Laymik</text><text x="0" y="120" fill="#000000" font-size="5px" font-weight="bold" font-family="'Helvetica Neue', Helvetica, Arial-Unicode, Arial, Sans-serif">from the Noun Project</text></svg>