<svg enable-background="new 0 0 50 50" viewBox="0 0 50 50" xmlns="http://www.w3.org/2000/svg"><path d="m23.6 29.6c0-.1 0-.2 0-.2-.2 0-.3 0-.5 0s-.4.1-.5.1-.2 0-.4.1v.1s.1 0 .1.1 0 .2.1.3c0 .1-.1.2-.1.2s-.1-.1-.1-.2 0-.3 0-.4c-.1 0-.2 0-.3 0-.2 0-.5 0-.7 0-.1 0-.1 0-.1.2v2.1 2.6 5.2.7h.2.4.2.2c0-.1.2-.1.2 0 0 0 .1-.1.1-.1h.3c.1 0 .2-.1.3.1 0-.1 0-.2.1-.2s.3.1.4.1h.2c.1.1.1.1.1-.2 0-.7 0-1.4 0-2.1 0-2.4 0-4.8 0-7.2v-.1c-.2-.5-.2-.9-.2-1.2zm-1.7 8.8c.1-.2.2-.1.2.2 0-.1-.1-.1-.2-.2zm.5-1.7c0-.2-.1-.3-.1-.5.1 0 .2-.1.2.2-.1.1-.1.2-.1.3zm.1-3.2c0-.2.1-.3.1-.5v.4s-.1.1-.1.1z"/><path d="m28.2 29.6c0-.1 0-.2 0-.2-.2 0-.3 0-.5 0s-.4.1-.5.1-.2 0-.4.1v.1s.1 0 .1.1 0 .2.1.3c0 .1-.1.2-.1.2s-.1-.1-.1-.2 0-.3 0-.4c-.1 0-.2 0-.3 0-.2 0-.5 0-.7 0-.1 0-.1 0-.1.2v2.1 2.6 5.2.7h.2.4.2.2c0-.1.2-.1.2 0 0 0 .1-.1.1-.1h.3c.1 0 .2-.1.3.1 0-.1 0-.2.1-.2s.3.1.4.1h.2c.1.1.1.1.1-.2 0-.7 0-1.4 0-2.1 0-2.4 0-4.8 0-7.2v-.1c-.2-.5-.2-.9-.2-1.2zm-1.6 8.8c.1-.2.2-.1.2.2-.1-.1-.1-.1-.2-.2zm.4-1.7c0-.2-.1-.3-.1-.5.1 0 .2-.1.2.2 0 .1 0 .2-.1.3zm.1-3.2c0-.2.1-.3.1-.5v.4s0 .1-.1.1z"/><path d="m41 21.1c0-.1 0-.1 0-.2 0-.3-.1-.6-.2-.9-.2-.4-.4-.7-.6-1.1v-.1c.1-.2 0-.2-.1-.4-.1-.1-.2-.2-.2-.3-.2-.3-.4-.5-.5-.8-.2-.3-.4-.6-.6-.8-.1-.1-.2-.2-.2-.3-.1-.1-.1-.2-.2-.2-.5-.1-.6-.7-1.1-.8-.3-.1-.5-.5-.9-.6-.3-.1-.5-.3-.8-.4-.5-.2-1.1-.4-1.6-.6-.1 0-.2-.1-.3-.2 0 0-.1 0-.1-.1-.2-.1-.5 0-.6-.2-.2-.3-.5-.2-.7-.4-.2-.1-.5-.3-.7-.4-.1-.1-.2 0-.2-.1-.5-.2-1-.5-1.6-.6 0 0 0 0-.1 0-.4-.2-.8-.4-1.1-.6-.2-.1-.4-.2-.6-.3-.3-.2-.6-.4-.9-.6 0 0 .1.1-3.2-.6-3.5-.7-3.6.1-3.6.1-.3.4-.6.7-1 1.1 0 .1-.1.1-.1.2.2 0 .3-.1.4-.1v.1c-.2.1-.3.2-.5.1-.1 0-.3 0-.4.1-.2.1-.3.3-.4.4s-.2.2-.3.3-.3.2-.4.2c-.2.1-.5.3-.6.5-.3.4-.7.4-1 .7-.2.2-.6.3-.9.5-.1.1-.3.1-.4.2-.2.1-.3.3-.5.4-.4.3-.9.5-1.3.9-.1.1-.3.2-.4.4-.2.3-.6.5-.8.7-.1.1-.2.2-.3.3-.3.4-.6.8-.9 1.3 0 .1-.1.1-.1.2-.3.5-.5 1.1-.8 1.6-.1.2-.3.4-.4.6h.1c-.1.1-.1.2-.1.3 0 .2-.1.4-.1.6 0 .4-.1.6-.1.9h.2c.1-.2.2-.4.3-.7 0-.1.1-.2.2-.2l1.5.1c.1 0 .2.1.2.2s0 .2-.1.3l-.3.2h.7c.1-.4.3-.9.3-.9 0-.1.1-.2.2-.2l1.1.1c.1 0 .2-.1.3 0h.1.1c.1 0 .2.1.2.2s0 .2-.1.3l-.2.1c-.1.4-.4 1.1-.4 1.1 0 .1-.1.2-.2.2l-.7-.1c-.1.2-.2.5-.4.7 0 0 0 .1-.1.1-.2.5-.5 1-.7 1.5-.1.2-.2.4-.3.6-.2.4-.2.9-.5 1.2-.1.2-.2.4-.2.6-.1 0-.1 0-.1 0v-.1s0 0-.1 0c-.1.1 0 .1 0 .2 0 0 0 0-.1 0 0 0 0 .1.1.1-.1 0-.1.1-.1.1.1 0 .1 0 .1.1-.1.1 0 .1 0 .1s.1.1.1.1h-.1c0 .1.1.2 0 .2.2 0 .1.2.1.2s0 0-.1 0c.1.1 0 .2 0 .4h-.1c0 .1.2.1.2.2h-.1v.3h-.1s0 .1.1.1c-.2.1.1.3-.2.4h.2c0 .1 0 .1-.1.1s0 .1 0 .1.1.1.1 0c-.1.1 0 .4-.2.4 0 .2.2.3.1.4 0 .1-.1.2-.2.1 0 .1.2.2.1.3v.1.1c-.1.1.1.3 0 .4h-.1c.1.1.1.2.1.2s-.1.1-.1.1v.1.1l-.1.1v.1h.1c0 .2-.1.5-.1.7 0 0 0 0-.1 0v.1.1.2c0 .1.1.2.2.3v.1-.1c-.1 0-.1.1-.2.1 0 .1.1 0 .1.1-.1 0 0 0-.1 0 0 .1.1.2.2.2 0 .1.1.2.1.2-.5.3-.3.4-.4.4 0 0 0-.1-.1 0s.2.1.1.2v.2c-.2.1 0 .3-.1.4h.1s.1 0 .1.1c-.1 0 .1.1 0 .1v.1c0-.1-.1 0-.2 0 0 .1.2.1.1.2l-.1.1c.1 0 .1.1.1.1h-.1v.1c0 .1.1.2 0 .3h-.2c-.1.1.1.1 0 .2h.1v-.1l.1.1-.1-.1c.1.1.1.1.1 0 .1.1-.1.1 0 .2h-.1c.1.1-.1.1 0 .2s0 .1.1.1.1 0 0 .1c0 0 .1.1.1 0 0 0 0 .1-.1 0 0 .1.2 0 .1.1v.1c0-.1-.1 0-.1-.1-.1 0 0 .1-.1.1h.2.1v.1s-.1.1-.1.2c0 0-.1-.1-.1 0s0 0-.1.1c0 .1.1 0 .1.1h.1v.2s0-.1.1 0c-.1 0-.1.1-.1.1h-.1-.2c0 .1.1.1.2 0 0 .1.2.1.1.2 0 0-.1.1-.2.2.1 0 .1-.1.1 0-.2.1.1.2 0 .3h-.1v.1h.1s0 .1-.1.1c.1.1 0 .1 0 .2 0-.1 0 0 0-.1v.1h-.1c.1 0 .1.1.1.2v.2.2c.1.1.2.1.3.1.5 0 1.1.1 1.6.2.7.1 1.3.1 2 .1h.6c.3 0 .6.1.9.2.1-.2.3-.2.5 0h.2 1 .1c.2-.2.5-.1.7-.1h1.4c0-.1 0-.2 0-.3 0-.8 0-1.6 0-2.4 0-.1-.1-.3-.1-.4s.1-.2.1-.3c0-1.6.1-3.3.1-4.9 0-.4.1-.8.1-1.2 0-.1-.1-.2-.1-.4 0 0 .1-.1.1-.2 0-.8.1-1.6.1-2.4 0-.3.1-.4.4-.5.5-.1 1-.1 1.5-.1s1 0 1.4-.1c.4 0 .9-.1 1.3-.2.1 0 .2.1.3.1 0-.2.1-.2.3-.2h5.9c.3 0 .5.1.5.4s.1.7.1 1c0 1.9.1 3.7.1 5.6 0 .9 0 1.7.1 2.6v.2c.1 0 .2 0 .3.1.2.1.3.2.5.3s.1.3.1.4-.1.2-.2.2c-.2.1-.4.1-.5.2 0 .7 0 1.3.1 1.9 0 .1.1.2.1.3h1.4.1.1 1 .2c.2-.2.4-.2.5 0 .3-.1.6-.2.9-.2h.6c.7-.1 1.3-.1 2-.1.5 0 1.1-.2 1.6-.2.2 0 .3 0 .3-.1s.1-.1.1-.1c0-.1 0-.1 0-.2s0-.1.1-.2h-.1c0-.1.1-.1 0-.1s0 0 0 .1c0-.1-.1-.1 0-.2-.1 0-.1-.1-.1-.1h.1v-.1h-.1c-.1-.1.2-.2 0-.3.1 0 0 .1.1 0 0-.1-.2-.1-.2-.2-.1-.1.1-.1.1-.2h.2c0-.1-.1-.1-.2 0s0 0-.1 0 0-.1-.1-.1h.1c-.1-.1 0-.1 0-.2h.1c0-.1.1-.1.1-.1-.1 0-.1 0-.1-.1s-.1 0-.1 0c.1-.1 0-.1-.1-.2s0 0 0-.1h.1.2s0-.1-.1-.1c0 .1-.1 0-.1.1 0 0 0 0 0-.1-.1-.1.1 0 .1-.1-.1 0-.1 0-.1 0h.1c0-.1 0-.1 0-.1.1 0 0 0 .1-.1.1 0-.1-.1 0-.2h-.1c.1-.1-.1-.1 0-.2h.1l-.1.1.1-.1v.1h.1c-.1-.1.1-.1 0-.2h-.2c-.1-.1.1-.2 0-.3.1 0 0-.1 0-.1-.1 0-.1 0-.1 0s0-.1.1-.1l-.1-.1c0-.1.2-.1.1-.2-.1 0-.1 0-.2 0v-.1s.1-.1 0-.1c0 0 .1 0 .1-.1s0-.1.1 0c-.2-.1 0-.3-.1-.4 0-.1 0-.2 0-.2-.1-.1.2-.1.1-.2-.1 0-.1.1-.1 0-.2 0 0-.1-.1-.2-.1 0 .1-.1.1-.2.1-.1.1-.2.2-.2-.1 0 0 0-.1 0 0 0 .1 0 .1-.1 0 0-.1-.1-.2-.1v.1c-.1 0-.1 0 0-.1-.2-.1-.3-.1-.3-.3 0-.1-.1-.3-.1-.5-.1-.4-.2-.8-.1-1.2.1 0 .2.1.3.1 0-.1 0-.2.1-.2h-.1c0-.1.1-.3 0-.4s.1-.1 0-.1.1-.1 0-.1c-.1-.1.1-.2.1-.3-.1 0-.2-.1-.2-.1 0-.2.1-.3.1-.4-.2-.1-.1-.3-.2-.4h.1s.1-.1 0-.1-.1-.1-.1-.1h.2c-.2-.1 0-.4-.2-.4 0 0 0-.1.1-.1h-.1c0-.1-.1-.1 0-.3h-.1c0-.1.2-.1.2-.2h-.1c0-.1-.1-.2 0-.4h-.1c0-.1-.1-.2.1-.2-.1 0 0-.1 0-.2h-.1c.1-.1.1-.1.1-.1-.2-.1-.2-.3-.3-.5s0 0 0-.1c-.1-.2-.1-.4-.2-.6-.2-.4-.3-.8-.5-1.2-.1-.2-.2-.4-.3-.6-.2-.5-.5-1-.7-1.5 0 0 0-.1-.1-.1-.2-.3-.3-.7-.5-1 0-.1 0-.1 0-.2s-.1-.3-.1-.4c0 .1-.1.2-.2.4 0 .1-.1.1-.2.1l-.7-.1-.8-.1c-.1 0-.2-.1-.2-.2s0-.2.1-.3l.6-.4c.1-.3.2-.6.2-.6 0-.1.1-.2.2-.2h.6l.3-.2c.1 0 .2-.1.3 0 .2.1.2.1-.2 1.2h.4c.1-.2.2-.5.3-.8 0-.1.1-.2.2-.2l1.5.1c.1 0 .2.1.2.2s0 .2-.1.3l-.3.2c0 .1 0 .1-.1.2h1.4.4.2c.3 0 .4-.1.3-.2zm-25 1.7h-.5v.1c0 .1-.1.2-.2.2l-.9-.1-.4.1h-.1-.1c-.2-.1-.3-.1.4-1.8 0-.1.1-.2.2-.2h.5c0-.1 0-.1 0-.1 0-.1.1-.2.2-.2l.9.1.3-.2c.1 0 .2-.1.3 0 .2.1.3.1-.4 1.8 0 .3-.1.3-.2.3zm2.9-1c-.1.4-.4 1.1-.4 1.1 0 .1-.1.2-.2.2l-1.2-.1c-.1 0-.2.1-.3 0 0 0 0 0-.1 0h-.1c-.1 0-.2-.1-.2-.2s0-.2.1-.3l.2-.1c.1-.4.4-1.1.4-1.1 0-.1.1-.2.2-.2l1.1.1c.1 0 .2-.1.3 0h.1.1c.1 0 .2.1.2.2s0 .2-.1.3zm1.9 1-1.2-.1c-.1 0-.2.1-.3 0 0 0 0 0-.1 0h-.1c-.1 0-.2-.1-.2-.2s0-.2.1-.3l.2-.1c.1-.4.4-1.1.4-1.1 0-.1.1-.2.2-.2l1.1.1c.1 0 .2-.1.3 0h.1.1c.1 0 .2.1.2.2s0 .2-.1.3l-.2.1c-.1.4-.4 1.1-.4 1.1.1.1 0 .2-.1.2zm3-.2h-.5v.1c0 .1-.1.2-.2.2l-.9-.1-.3.2h-.1-.1c-.2-.1-.3-.1.4-1.8 0-.1.1-.2.2-.2h.5c0-.1 0-.1 0-.1 0-.1.1-.2.2-.2l.9.1.3-.2c.1 0 .2-.1.3 0 .2.1.3.1-.4 1.8-.1.2-.2.2-.3.2zm2.4.1c0 .1-.1.2-.2.2l-1.1-.1c-.1 0-.2.1-.2 0 0 0 0 0-.1 0h-.1c-.1 0-.2-.1-.2-.2s0-.2.1-.3l.2-.1c.1-.5.4-1.2.4-1.2 0-.1.1-.2.2-.2l1.1.1c.1 0 .2-.1.2 0h.1.1c.1 0 .2.1.2.2s0 .2-.1.3l-.2.1c-.1.5-.4 1.2-.4 1.2zm2.4-.1-1.2-.1c-.1 0-.2.1-.2 0 0 0 0 0-.1 0h-.1c-.1 0-.2-.1-.2-.2s0-.2.1-.3l.2-.1c.1-.4.4-1.1.4-1.1 0-.1.1-.2.2-.2l1.1.1c.1 0 .2-.1.2 0h.1.1c.1 0 .2.1.2.2s0 .2-.1.3l-.2.1c-.1.4-.4 1.1-.4 1.1.1.1 0 .2-.1.2zm3.2-.4c0 .1-.1.2-.2.2h-.5v.1c0 .1-.1.2-.2.2l-.9-.1-.3.2h-.1-.1c-.2-.1-.3-.1.4-1.8 0-.1.1-.2.2-.2h.5c0-.1 0-.1 0-.1 0-.1.1-.2.2-.2l.9.1.3-.2c.1 0 .2-.1.3 0 .1.2.2.2-.5 1.8zm2.8-1-.2.1c-.1.4-.4 1.1-.4 1.1 0 .1-.1.2-.2.2l-1.1-.1c-.1 0-.2.1-.2 0 0 0 0 0-.1 0h-.1c-.1 0-.2-.1-.2-.2s0-.2.1-.3l.2-.1c.1-.4.4-1.1.4-1.1 0-.1.1-.2.2-.2l1.1.1c.1 0 .2-.1.2 0h.1.1c.1 0 .2.1.2.2.1.1 0 .3-.1.3zm2.1-4.3h.1s.1 0 .1.1v.2c-.3 0-.3 0-.2-.3zm-4.4 3c.3-.4.4-.4.7-.1-.4.1-.5.1-.5.6-.1-.1-.3-.1-.3-.2s.1-.2.1-.3zm-2.7-6.2c.3.1.6.3.8.4.1 0 .1.2.1.3.1-.2.2-.2.4 0 0 0 .1.1.2.1l.6.3c-.2.2-.2.2-.3.3-.6-.3-1.1-.5-1.7-.8-.4-.2-.4-.2-.1-.6zm-3.9-2.8c.2-.3.4-.3.6 0 0 .1 0 .1.1.3-.3 0-.6.1-1 .1.1-.2.2-.3.3-.4zm-3.2 8.8c.3-.4.5-.8.8-1.3.1 0 .2.1.2.2v.3c-.2.3-.4.5-.5.7-.2.3-.3.2-.5.1zm2.2-9.3c-.3.1-.6.3-.9.4-.1-.2-.2-.4-.2-.6.3.1.7.1 1.1.2zm-1.1 6c-.1.1-.2.2-.3.4-.2-.2-.3-.4-.4-.6 0 0 .1-.1.1-.1.1 0 .3.1.6.3zm-1.1-6.1c.4.1.5.3.4.7-.4-.2-.6-.4-.4-.7zm-4.6 8.7c0 .1-.1.1-.2.1s-.2-.1-.3-.2c0 0 0-.2.1-.2.1-.1.1-.2.2-.3s.2-.3.4-.4c-.1-.2.2-.3.3-.5 0 0 .1-.1.2-.1.1-.4.4-.6.7-.7.1.2.1.4-.1.6-.3.3-.5.5-.7.8s-.4.6-.6.9zm1.7-.9c0 .1.1.2.1.4.1 0 .1-.1.2-.1v.3s-.1 0-.1.1c-.2-.2-.3-.3-.5-.5.1-.2.2-.2.3-.2zm1.3-1.2c.2.3.7.2.8.6-.1.1-.2.2-.3.2s-.2 0-.3 0c-.2-.2-.3-.4-.4-.6 0 0 .1 0 .2-.2zm-4-1.5c.6-.5 1.2-.9 1.8-1.3.4-.3.7-.5 1.1-.8h.3c0-.1 0-.1 0-.2.1 0 .3 0 .3.1v.3c-.2.2-.5.4-.8.6-.8.6-1.6 1.2-2.4 1.8-.1.1-.2.3-.3.1-.2-.3-.1-.6 0-.6zm-1.1 3.4c0-.1.1-.2.1-.3.3-.3.5-.7.7-1.1.2-.3.5-.7.7-.9.4-.4.8-.7 1.2-1s.6-.4 1-.3c-.1.2-.2.4-.4.6-.3.2-.7.4-1 .6-.1.1-.3.3-.4.4-.3.4-.7.8-.9 1.3-.4.6-.7 1.2-1 1.8-.1.2-.2.4-.5.4-.2-.4.1-.7.2-1 .2-.2.3-.3.3-.5zm-2.1.2c.4-.7.9-1.3 1.4-1.9.1-.1.2-.1.4-.2 0 .2 0 .4-.1.4-.3.4-.6.8-.9 1.2-.1.2-.3.4-.4.6-.3.5-.5 1-.8 1.5-.3 0-.4-.3-.3-.5.3-.4.5-.7.7-1.1zm-1.4.8c-.1 0-.1 0 0 0 0-.2.1-.3.2-.5.2-.3.3-.6.5-.8.1-.2.3-.4.5-.5h.2v.2c-.2.5-.5 1-.8 1.5-.2.2-.4 0-.6.1zm22.9-1.3c-.3-.5-.7-.9-1-1.3-.2-.2-.5-.5-.7-.7-.1-.1-.2-.1-.2-.1 0-.1 0-.3 0-.3.1 0 .3-.1.4 0 .3.2.6.4.8.7.4.5.8 1.1 1.2 1.6.1.1.1.2.1.4-.3 0-.4 0-.6-.3zm1.6.3c-.2 0-.3-.2-.3-.4 0-.1 0-.1 0-.2-.5-.9-1.1-1.9-2-2.5-.2-.2 0-.3-.1-.6.2.1.3.1.4.1.3.3.6.5.9.9.5.6 1 1.3 1.3 2.1v.2c0 .2-.1.4-.2.4zm2.5.9c-.4-.2-.7-.4-1-.6 0 0 0 0 0-.1.3 0 .5-.1.8-.1.1 0 .3-.1.4-.1s.1 0 .2.1c-.2.3-.2.6-.4.8zm.8.5c.1-.2.1-.4.2-.6h.3c-.2.2-.1.6-.5.6zm-27.7 8.9c.3-.6.5-1.1.8-1.7.1-.3.1-.3.6-.2-.1.3-.2.6-.3.9-.1.4-.3.7-.4 1.1-.2.4-.4.7-.6 1.1 0 0-.1.1-.1.1-.1 0-.2.1-.3.1 0-.1-.1-.2-.1-.3v-.1c.1-.4.3-.7.4-1zm-.5 4.2c-.2 0-.4 0-.4-.4.2.1.3.2.4.4zm.2-5.2c-.1.3-.2.5-.3.8-.1-.1-.2-.1-.3-.2.2-.2.2-.5.6-.6zm.3 5.4c-.2.4-.3.9-.5 1.3-.1.2-.2.3-.4.1-.1-.1-.2-.1-.3-.2 0-.2.1-.3.1-.5.1.1.2.2.3.3 0-.2.1-.4.1-.6 0 0 0 0-.1 0 .2-.2.4-.5.5-.7.1 0 .2.1.3.1zm1.8 4.7c-.2-.1-.5-.2-.7-.3s-.3-.1-.5-.2c-.4-.1-.4-.1-.3-.6.5.4 1 .7 1.5 1.1 0-.1 0 0 0 0zm.1-4.2s-.1 0-.2 0c-.3-.1-.1-.3 0-.5.2.2.3.4.2.5zm-.1-4.2c-.1.2-.2.4-.3.7-.1.2-.3.4-.6.3.1-.3.2-.5.3-.8.3-.8.7-1.5 1.1-2.3.1-.1.2-.3.3-.4s.2 0 .2.1c0 .2-.1.4-.2.6s-.1.3-.2.5c-.2.4-.4.9-.6 1.3zm1.2 4.3c-.2-.3-.3-.5-.5-.7 0 0 0-.1 0-.2.1 0 .2 0 .2.1.2.1.3.3.5.5 0 0-.1.2-.2.3zm-.1-2.5c.3 0 .4.2.5.4-.4.1-.3-.3-.5-.4zm2.8-.7c-.1.2-.2.3-.3.5-.1-.2-.1-.4-.1-.6.1 0 .3.1.4.1zm-1.1-4.1c.2.2.2.2-.4.7-.1-.1 0-.3.4-.7zm-.8 3.8c.2 0 .5 0 .6.1.1.2.1.4.2.6 0 0 0 0-.1.1-.3-.3-.5-.5-.7-.8zm1.5 8.6c-.3.1-.7-.2-.7-.6.3.1.5.3.7.4.1 0 0 .1 0 .2zm.8-1.1c-.4-.2-.8-.4-1.1-.6-.1 0-.1 0-.2-.1-.3 0-.4-.1-.3-.4.1 0 .3 0 .4-.1v.2c.3-.3.6-.3.9-.3v.1c-.2 0-.4.1-.7.1v.1c.2.1.3.1.5.2.4.1.5.3.5.8zm1.4-10.2c0-.1 0-.1 0 0 0-.2 0-.3.1-.5.3.2 0 .3-.1.5zm15.4-.1c-.1-.1-.1-.2-.1-.2.1-.2.1-.5.4-.4 0 .1-.1.3-.3.6zm2.7 3.1c.2.7.4 1.4.6 2.1.1.4.1.4-.4.6-.1-.4-.2-.7-.3-1-.1-.4-.3-.9-.4-1.3-.1-.5-.2-.9-.3-1.4 0-.1 0-.1 0-.2s.1-.2.2-.3c.1.1.2.1.3.2 0 0 .1.1.1.1 0 .4.1.8.2 1.2zm-2.7-4.2c.2-.1.4-.3.6.1-.2 0-.4 0-.6-.1zm3.6 4.8c-.1-.3-.2-.6-.4-.9h.5c0 .3.2.6-.1.9zm-4.2-4.6c-.2-.5-.3-1-.5-1.6-.1-.2 0-.4.3-.4.1 0 .2-.1.4-.1.1.2.2.3.3.6-.2 0-.3 0-.5 0 .1.2.2.4.3.6h.1c0 .4 0 .7.1 1.1-.1 0-.2.1-.3.1-.1-.1-.1-.2-.2-.3zm-5-2.9c.3-.1.6-.2.9-.3.2-.1.4-.1.6-.2.4-.2.4-.2.7.3-.8 0-1.5.1-2.2.2zm2.9 3.8c0-.1.1-.1.2-.2.4-.1.4.2.4.4-.4.1-.6 0-.6-.2zm3.2 3.8c-.1-.3-.2-.5-.3-.8s0-.6.4-.7c.1.3.2.6.3.9.3 1 .5 1.9.7 2.9v.6c0 .1-.2.2-.3 0s-.2-.4-.3-.7c-.1-.2-.1-.4-.2-.6 0-.6-.2-1.1-.3-1.6zm-4.2-3c.4.1.7.2.9.3.1 0 .1.1.1.1-.1 0-.2.1-.2.1-.2 0-.5 0-.8-.1-.1-.1 0-.3 0-.4zm1.9 2.1c-.2.2-.5.1-.7 0 .2-.3.5 0 .7 0zm-2 2.8c0-.2-.1-.4-.1-.6.2.2.4.3.5.4-.1 0-.3.1-.4.2zm4 2.8c-.3-.1-.3-.1-.2-.9.2 0 .3.2.2.9zm-2-4v.1c-.2.1-.5.3-.6.2-.2-.1-.4-.3-.6-.5v-.1zm-7.7-6.6c.2-.3.7-.4 1.1 0-.4.1-.7.1-1 .2-.1 0-.2-.2-.1-.2zm6.3 11.8h.1c.1.2.1.3.2.6-.4-.1-.2-.4-.3-.6z"/></svg>