<svg viewBox="0 0 100 100" xmlns="http://www.w3.org/2000/svg"><path d="m49.994505 969.36239c-.6142.011-1.2381.22983-1.8438.625l-38 30c-.9762002.96921-1.6623002 3.05621-.6562002 4.34371 1.0061002 1.2876 3.1221002 1.4603 4.3438002.375l36.1562-28.53121 36.1562 28.53121c1.2216 1.0853 3.3823.9462 4.3438-.375.8437-1.1592.636-3.3774-.6562-4.34371l-13.8438-10.9375v-16.6875a3.0003 3.0003 0 0 0 -3-3h-8a3.0003 3.0003 0 0 0 -3 3v5.65625l-10.1562-8.03125c-.625-.43912-1.2296-.63599-1.8438-.625zm18 6h2v8.96875l-2-1.59375zm-42 23.28125-6 4.74996v28.9688a3.0003 3.0003 0 0 0 3 3h17a3.0003 3.0003 0 0 0 3-3v-10c0-3.9299 3.0701-7 7-7s7 3.0701 7 7v10a3.0003 3.0003 0 0 0 3 3h17a3.0003 3.0003 0 0 0 3-3v-28.9688l-6-4.74996v30.71876h-11v-7c0-7.1501-5.8499-13-13-13s-13 5.8499-13 13v7h-11z" transform="translate(0 -952.36218)"/></svg>