<svg viewBox="0 0 100 100" xmlns="http://www.w3.org/2000/svg"><path d="m50.2188 957.3659c.7581.058 1.4896.42375 2 1 14.7172 16.40498 28.7812 35.8887 28.7812 54.75 0 18.7505-13.7791 34.25-31 34.25-17.221 0-31-15.4995-31-34.25 0-18.8613 14.0642-38.34503 28.7812-54.75.6085-.68665 1.5338-1.06622 2.4376-1zm-.2188 7.8125c-13.4077 15.43785-25 33.1823-25 47.9375 0 15.7044 11.3108 28.125 25 28.125 13.6891 0 25-12.4206 25-28.125 0-14.7552-11.5923-32.49965-25-47.9375zm20.9062 45.4063c.8171 8.6188-3.4418 18.0572-10.1874 22.7187-1.2904.9418-3.3312.5952-4.2384-.7197-.9072-1.315-.5065-3.3459.8321-4.2178 4.3194-2.9849 8.1898-11.2596 7.625-17.2187-.1777-1.6925 1.3613-3.3571 3.0625-3.3125 1.4764.013 2.7747 1.2962 2.9062 2.75z" transform="translate(0 -952.36218)"/></svg>