<svg enable-background="new 0 0 512 512" height="512" viewBox="0 0 512 512" width="512" xmlns="http://www.w3.org/2000/svg"><path d="m0 208c0 29.781 20.438 54.594 48 61.75v210.25h-32c-8.813 0-16 7.156-16 16s7.188 16 16 16h480c8.875 0 16-7.156 16-16s-7.125-16-16-16h-32v-210.25c27.562-7.156 48-31.969 48-61.75v-16h-512zm320 64c35.375 0 64-28.656 64-64 0 29.781 20.438 54.594 48 61.75v210.25h-240v-208c35.375 0 64-28.656 64-64 0 35.344 28.688 64 64 64zm-144-2.25v210.25h-96v-210.25c27.563-7.156 48-31.969 48-61.75 0 29.781 20.438 54.594 48 61.75zm272-221.75h-384l-64 128h512zm-312.812 35.563-32 64c-1.438 2.813-4.25 4.438-7.188 4.438-1.188 0-2.406-.25-3.563-.844-3.938-1.969-5.563-6.781-3.563-10.719l32-64c2-3.938 6.781-5.531 10.719-3.594 3.97 1.969 5.532 6.781 3.595 10.719zm64 0-32 64c-1.438 2.813-4.25 4.438-7.188 4.438-1.188 0-2.406-.25-3.563-.844-3.938-1.969-5.563-6.781-3.563-10.719l32-64c2-3.938 6.813-5.531 10.719-3.594 3.97 1.969 5.532 6.781 3.595 10.719zm64.812 60.437c0 4.438-3.562 8-8 8-4.406 0-8-3.563-8-8v-64c0-4.438 3.594-8 8-8 4.438 0 8 3.563 8 8zm91.875 7c-1.25.688-2.562 1-3.875 1-2.812 0-5.562-1.5-7-4.156l-35-64c-2.125-3.875-.688-8.75 3.188-10.844 3.813-2.125 8.75-.75 10.875 3.156l35 64c2.062 3.875.687 8.75-3.188 10.844zm63.687.156c-1.124.594-2.312.844-3.562.844-2.938 0-5.75-1.625-7.125-4.438l-32-64c-2-3.938-.375-8.75 3.562-10.719 3.875-1.969 8.75-.375 10.75 3.594l32 64c1.938 3.938.375 8.751-3.625 10.719zm-283.562 235.282v-36.875c-4.688-2.812-8-7.688-8-13.562 0-8.844 7.188-16 16-16 8.875 0 16 7.156 16 16 0 5.875-3.281 10.75-8 13.562v36.875c4.719 2.813 8 7.688 8 13.563 0 8.844-7.125 16-16 16-8.813 0-16-7.156-16-16 0-5.876 3.313-10.751 8-13.563zm-72-370.438c0-8.844 7.188-16 16-16h352c8.875 0 16 7.156 16 16s-7.125 16-16 16h-352c-8.812 0-16-7.156-16-16zm216.438 341.656-11.312-11.313 45.25-45.25 11.312 11.313zm0 45.25-11.312-11.313 90.5-90.5 11.312 11.313zm79.187-56.562 11.312 11.313-45.25 45.25-11.312-11.313z"/></svg>