<svg viewBox="0 0 100 100" xmlns="http://www.w3.org/2000/svg"><path d="m49.8125 19a2.0002002 2.0002002 0 0 0 -1.8125 2v14h-13a2.0002002 2.0002002 0 0 0 -.1875 0 2.0021961 2.0021961 0 1 0 .1875 4h11.1875l-11.59375 11.59375a2.0002002 2.0002002 0 0 0 -.59375 1.40625v5h-14.75l9.53125-19.09375a2.0002002 2.0002002 0 0 0 -1.875-2.9375 2.0002002 2.0002002 0 0 0 -1.71875 1.125l-10.96875 22a2.0002002 2.0002002 0 0 0 1.78125 2.90625h3v14a2.0002002 2.0002002 0 0 0 2 2h13v2a2.0002002 2.0002002 0 0 0 2 2h28a2.0002002 2.0002002 0 0 0 2-2v-2h13a2.0002002 2.0002002 0 0 0 2-2v-14h3a2.0002002 2.0002002 0 0 0 1.78125-2.90625l-10.96875-22a2.0002002 2.0002002 0 0 0 -1.8125-1.09375h-21v-3.84375c.641903.12288 1.126498.317744 1.84375.65625 1.139931.537988 2.934027 1.1875 6.15625 1.1875a2.0002002 2.0002002 0 0 0 2-2v-8a2.0002002 2.0002002 0 0 0 -2-2c-2.777778 0-3.487744-.334831-4.5625-.8125s-2.670834-1.1875-5.4375-1.1875a2.0002002 2.0002002 0 0 0 -.1875 0zm2.1875 4.1875c.64572.14049 1.145429.328524 1.8125.625.872043.387575 2.304603.789533 4.1875 1v4.03125c-1.067115-.138761-1.800057-.35541-2.4375-.65625-.740993-.34971-1.986637-.751089-3.5625-.96875zm1.8125 15.8125h17.9375l9 18h-14.75v-5a2.0002002 2.0002002 0 0 0 -.59375-1.40625zm-3.8125 1.8125 12 12v24.1875h-24v-24.1875zm0 7.1875c-3.290019 0-6 2.70998-6 6 0 3.290019 2.709981 6 6 6 3.29002 0 6-2.709981 6-6 0-3.29002-2.70998-6-6-6zm0 4c1.12826 0 2 .871741 2 2 0 1.128258-.87174 2-2 2s-2-.871742-2-2c0-1.128259.87174-2 2-2zm-27 9h11v12h-11zm43 0h11v12h-11z"/></svg>