<svg enable-background="new 0 0 100 100" viewBox="0 0 100 100" xmlns="http://www.w3.org/2000/svg"><path d="m65.9 25.2h-1.5c-3.3 0-6.3 1-8.8 2.7.5-4.7-1-9.5-4.5-13.1l-1.1-1.1-1.1 1.1c-3.4 3.4-5 8.1-4.6 12.6-2.5-1.7-5.5-2.6-8.7-2.6h-1.5v1.5c0 3.4 1.1 6.6 2.9 9.2-.5 0-1-.1-1.4-.1h-1.5v1.5c0 3.4 1.1 6.6 2.9 9.2-.5 0-1-.1-1.4-.1h-1.5v1.5c0 3.4 1.1 6.6 2.9 9.2-.5 0-1-.1-1.4-.1h-1.5v1.4c0 8.3 6.3 15.1 14.4 15.8v.5 10.4c0 .8.7 1.5 1.5 1.5s1.5-.7 1.5-1.5v-10.4c8.1-.8 14.4-7.6 14.4-15.8v-1.5h-1.5c-.5 0-1 0-1.4.1 1.8-2.6 2.9-5.8 2.9-9.2v-1.5h-1.5c-.5 0-1 0-1.4.1 1.8-2.6 2.9-5.8 2.9-9.2v-1.5h-1.5c-.5 0-1 0-1.4.1 1.8-2.6 2.9-5.8 2.9-9.2zm-17.5 24.4c-5.8-.7-10.5-5.4-11.2-11.2 5.8.8 10.5 5.4 11.2 11.2zm0 10.6c-5.8-.7-10.5-5.4-11.2-11.2 5.8.8 10.5 5.4 11.2 11.2zm14.4-10.7c-.7 5.8-5.4 10.5-11.2 11.2.7-5.8 5.4-10.5 11.2-11.2zm0-10.6c-.7 5.8-5.4 10.5-11.2 11.2.7-5.8 5.4-10.5 11.2-11.2zm0-10.6c-.7 5.8-5.4 10.5-11.2 11.2.7-5.9 5.4-10.5 11.2-11.2zm-12.8-10.2c3.6 4.6 3.6 11.2 0 15.8-.5-1-1-1.9-1.7-2.8-1.8-4.2-1.2-9.2 1.7-13zm-4.2 14.6c.4 1 1 1.9 1.6 2.7.5 1.1.8 2.3 1 3.5-5.8-.7-10.5-5.4-11.2-11.2 3.5.6 6.5 2.4 8.6 5zm-8.6 26.9c5.8.8 10.5 5.4 11.2 11.2-5.8-.7-10.5-5.3-11.2-11.2zm14.4 11.7c.7-5.8 5.4-10.5 11.2-11.2-.7 5.8-5.4 10.5-11.2 11.2z"/></svg>